<?xml version="1.0" encoding="UTF-8" standalone="no"?>
<svg
   width="338"
   height="442"
   viewBox="0 0 338 442"
   fill="none"
   version="1.1"
   id="svg76"
   sodipodi:docname="scheme (1).svg"
   inkscape:version="1.4 (e7c3feb1, 2024-10-09)"
   xmlns:inkscape="http://www.inkscape.org/namespaces/inkscape"
   xmlns:sodipodi="http://sodipodi.sourceforge.net/DTD/sodipodi-0.dtd"
   xmlns="http://www.w3.org/2000/svg"
   xmlns:svg="http://www.w3.org/2000/svg">
  <sodipodi:namedview
     id="namedview76"
     pagecolor="#ffffff"
     bordercolor="#000000"
     borderopacity="0.25"
     inkscape:showpageshadow="2"
     inkscape:pageopacity="0.0"
     inkscape:pagecheckerboard="0"
     inkscape:deskcolor="#d1d1d1"
     inkscape:zoom="0.79218179"
     inkscape:cx="92.781734"
     inkscape:cy="292.2309"
     inkscape:window-width="1440"
     inkscape:window-height="900"
     inkscape:window-x="0"
     inkscape:window-y="0"
     inkscape:window-maximized="0"
     inkscape:current-layer="svg76" />
  <g
     id="g76"
     inkscape:label="wall">
    <path
       d="M285.437 38.3061L276.755 25.5423V2H3.0004L3 441H306.377V384.207V233.168H336V63.8339H321.189L310.974 53.0555M276.755 45.6808V63.8339H291.566L301.27 53.0555"
       stroke="#D9D9D9"
       stroke-width="1.5"
       id="path1" />
    <path
       d="M6 121H0V160H6V121Z"
       fill="#D9D9D9"
       id="path2" />
    <path
       d="M139 0V5L178 5V0L139 0Z"
       fill="#D9D9D9"
       id="path3" />
    <path
       d="M213 0V5L252 5V0L213 0Z"
       fill="#D9D9D9"
       id="path4" />
    <path
       d="M3 365V368H99V365H3Z"
       fill="#D9D9D9"
       id="path5" />
    <path
       d="M3 276V279H99V276H3Z"
       fill="#D9D9D9"
       id="path6" />
    <path
       d="M3 187V190H99V187H3Z"
       fill="#D9D9D9"
       id="path7" />
    <path
       d="M3 98V101H99V98H3Z"
       fill="#D9D9D9"
       id="path8" />
    <path
       d="M6 216H0V255H6V216Z"
       fill="#D9D9D9"
       id="path9" />
    <path
       d="M6 310H0V349H6V310Z"
       fill="#D9D9D9"
       id="path10" />
    <path
       d="M309 389H304V428H309V389Z"
       fill="#D9D9D9"
       id="path11" />
    <path
       d="M338 194H333V233H338V194Z"
       fill="#D9D9D9"
       id="path12" />
  </g>
  <g
     id="g78"
     inkscape:label="table_9_2">
    <path
       d="M161 52C161 42.5323 168.611 34.8571 178 34.8571C187.389 34.8571 195 42.5323 195 52C195 61.4677 187.389 69.1429 178 69.1429C168.611 69.1429 161 61.4677 161 52Z"
       fill="#31AA49"
       id="path13" />
    <path
       d="M169.5 30.5714C169.5 29.2443 169.5 28.5807 169.587 28.0255C170.067 24.9691 172.444 22.572 175.475 22.0879C176.026 22 176.684 22 178 22C179.316 22 179.974 22 180.525 22.0879C183.556 22.572 185.933 24.9691 186.413 28.0255C186.5 28.5807 186.5 29.2443 186.5 30.5714V33.4286H169.5V30.5714Z"
       fill="#31AA49"
       id="path14" />
    <path
       d="M169.5 73.4286C169.5 74.7557 169.5 75.4193 169.587 75.9745C170.067 79.0309 172.444 81.428 175.475 81.9121C176.026 82 176.684 82 178 82C179.316 82 179.974 82 180.525 81.9121C183.556 81.428 185.933 79.0309 186.413 75.9745C186.5 75.4193 186.5 74.7557 186.5 73.4286V70.5714H169.5V73.4286Z"
       fill="#31AA49"
       id="path15" />
    <path
       d="M175.347 58.225L174.589 56.575C175.254 56.49 175.849 56.3475 176.374 56.1475C176.899 55.9475 177.359 55.7025 177.754 55.4125C178.149 55.1225 178.482 54.7975 178.752 54.4375C179.022 54.0775 179.232 53.6975 179.382 53.2975C179.147 53.5475 178.859 53.7475 178.519 53.8975C178.184 54.0425 177.827 54.115 177.447 54.115C176.787 54.115 176.192 53.97 175.662 53.68C175.137 53.39 174.722 52.9925 174.417 52.4875C174.117 51.9775 173.967 51.395 173.967 50.74C173.967 50.085 174.132 49.4975 174.462 48.9775C174.797 48.4525 175.259 48.0375 175.849 47.7325C176.439 47.4275 177.119 47.275 177.889 47.275C178.679 47.275 179.379 47.445 179.989 47.785C180.599 48.12 181.079 48.6025 181.429 49.2325C181.779 49.8575 181.954 50.6075 181.954 51.4825C181.954 52.3825 181.787 53.2125 181.452 53.9725C181.117 54.7275 180.647 55.3975 180.042 55.9825C179.442 56.5675 178.742 57.05 177.942 57.43C177.142 57.81 176.277 58.075 175.347 58.225ZM177.889 52.405C178.239 52.405 178.552 52.3325 178.827 52.1875C179.107 52.0425 179.327 51.845 179.487 51.595C179.652 51.34 179.734 51.055 179.734 50.74C179.734 50.415 179.654 50.1275 179.494 49.8775C179.334 49.6275 179.117 49.4325 178.842 49.2925C178.567 49.1475 178.249 49.075 177.889 49.075C177.534 49.075 177.217 49.1475 176.937 49.2925C176.662 49.4325 176.444 49.6275 176.284 49.8775C176.129 50.1275 176.052 50.415 176.052 50.74C176.052 51.055 176.132 51.34 176.292 51.595C176.457 51.845 176.677 52.0425 176.952 52.1875C177.232 52.3325 177.544 52.405 177.889 52.405Z"
       fill="white"
       id="path16" />
  </g>
  <g
     id="g77"
     inkscape:label="table_1_8">
    <path
       d="M39.9079 52C39.9079 42.5323 47.6133 34.8571 57.1184 34.8571H105.882C115.387 34.8571 123.092 42.5323 123.092 52C123.092 61.4677 115.387 69.1429 105.882 69.1429H57.1184C47.6133 69.1429 39.9079 61.4677 39.9079 52Z"
       fill="#31AA49"
       id="path17" />
    <path
       d="M48.5132 30.5714C48.5132 29.2443 48.5132 28.5807 48.6014 28.0255C49.0874 24.9691 51.494 22.572 54.5624 22.0879C55.1198 22 55.786 22 57.1184 22C58.4508 22 59.117 22 59.6744 22.0879C62.7429 22.572 65.1494 24.9691 65.6354 28.0255C65.7237 28.5807 65.7237 29.2443 65.7237 30.5714V33.4286H48.5132V30.5714Z"
       fill="#31AA49"
       id="path18" />
    <path
       d="M72.8947 30.5714C72.8947 29.2443 72.8947 28.5807 72.983 28.0255C73.469 24.9691 75.8755 22.572 78.944 22.0879C79.5014 22 80.1676 22 81.5 22C82.8324 22 83.4986 22 84.056 22.0879C87.1245 22.572 89.531 24.9691 90.017 28.0255C90.105 28.5807 90.105 29.2443 90.105 30.5714V33.4286H72.8947V30.5714Z"
       fill="#31AA49"
       id="path19" />
    <path
       d="M97.276 30.5714C97.276 29.2443 97.276 28.5807 97.365 28.0255C97.851 24.9691 100.257 22.572 103.326 22.0879C103.883 22 104.549 22 105.882 22C107.214 22 107.88 22 108.438 22.0879C111.506 22.572 113.913 24.9691 114.399 28.0255C114.487 28.5807 114.487 29.2443 114.487 30.5714V33.4286H97.276V30.5714Z"
       fill="#31AA49"
       id="path20" />
    <path
       d="M127.395 43.4286C128.727 43.4286 129.393 43.4286 129.951 43.5165C133.019 44.0006 135.426 46.3977 135.912 49.454C136 50.0093 136 50.6728 136 52C136 53.3272 136 53.9907 135.912 54.546C135.426 57.6023 133.019 59.9994 129.951 60.4835C129.393 60.5714 128.727 60.5714 127.395 60.5714H124.526V43.4286H127.395Z"
       fill="#31AA49"
       id="path21" />
    <path
       d="M48.5132 73.4286C48.5132 74.7557 48.5132 75.4193 48.6014 75.9745C49.0874 79.0309 51.494 81.428 54.5624 81.9121C55.1198 82 55.786 82 57.1184 82C58.4508 82 59.117 82 59.6744 81.9121C62.7429 81.428 65.1494 79.0309 65.6354 75.9745C65.7237 75.4193 65.7237 74.7557 65.7237 73.4286V70.5714H48.5132V73.4286Z"
       fill="#31AA49"
       id="path22" />
    <path
       d="M72.8947 73.4286C72.8947 74.7557 72.8947 75.4193 72.983 75.9745C73.469 79.0309 75.8755 81.428 78.944 81.9121C79.5014 82 80.1676 82 81.5 82C82.8324 82 83.4986 82 84.056 81.9121C87.1245 81.428 89.531 79.0309 90.017 75.9745C90.105 75.4193 90.105 74.7557 90.105 73.4286V70.5714H72.8947V73.4286Z"
       fill="#31AA49"
       id="path23" />
    <path
       d="M97.276 73.4286C97.276 74.7557 97.276 75.4193 97.365 75.9745C97.851 79.0309 100.257 81.428 103.326 81.9121C103.883 82 104.549 82 105.882 82C107.214 82 107.88 82 108.438 81.9121C111.506 81.428 113.913 79.0309 114.399 75.9745C114.487 75.4193 114.487 74.7557 114.487 73.4286V70.5714H97.276V73.4286Z"
       fill="#31AA49"
       id="path24" />
    <path
       d="M35.6053 43.4286C34.2729 43.4286 33.6067 43.4286 33.0493 43.5165C29.9808 44.0006 27.5743 46.3977 27.0883 49.454C27 50.0093 27 50.6728 27 52C27 53.3272 27 53.9907 27.0883 54.546C27.5743 57.6023 29.9808 59.9994 33.0493 60.4835C33.6067 60.5714 34.2729 60.5714 35.6053 60.5714H38.4737V43.4286H35.6053Z"
       fill="#31AA49"
       id="path25" />
    <path
       d="M81.7662 57V48.885L79.2762 49.7775L78.6912 48.0525L83.6562 46.275H83.8062V57H81.7662Z"
       fill="white"
       id="path26" />
  </g>
  <g
     id="g79"
     inkscape:label="table_2_4">
    <path
       d="M44.8782 129.878C51.5729 123.183 62.4271 123.183 69.1218 129.878C75.8165 136.573 75.8165 147.427 69.1218 154.122C62.4271 160.816 51.5729 160.816 44.8782 154.122C38.1835 147.427 38.1835 136.573 44.8782 129.878Z"
       fill="#31AA49"
       id="path27" />
    <path
       d="M66.0914 120.787C67.0298 119.848 67.499 119.379 67.9538 119.049C70.4573 117.23 73.8473 117.23 76.3508 119.049C76.8055 119.379 77.2748 119.848 78.2132 120.787C79.1516 121.725 79.6209 122.194 79.9513 122.649C81.7702 125.153 81.7702 128.543 79.9513 131.046C79.6209 131.501 79.1516 131.97 78.2132 132.909L76.1929 134.929L64.0711 122.807L66.0914 120.787Z"
       fill="#31AA49"
       id="path28" />
    <path
       d="M78.2132 151.091C79.1516 152.03 79.6209 152.499 79.9513 152.954C81.7702 155.457 81.7702 158.847 79.9513 161.351C79.6209 161.805 79.1516 162.275 78.2132 163.213C77.2748 164.152 76.8055 164.621 76.3508 164.951C73.8473 166.77 70.4573 166.77 67.9538 164.951C67.499 164.621 67.0298 164.152 66.0914 163.213L64.0711 161.193L76.1929 149.071L78.2132 151.091Z"
       fill="#31AA49"
       id="path29" />
    <path
       d="M35.7868 151.091C34.8484 152.03 34.3791 152.499 34.0487 152.954C32.2298 155.457 32.2298 158.847 34.0487 161.351C34.3791 161.805 34.8484 162.275 35.7868 163.213C36.7252 164.152 37.1945 164.621 37.6492 164.951C40.1527 166.77 43.5427 166.77 46.0462 164.951C46.501 164.621 46.9702 164.152 47.9086 163.213L49.9289 161.193L37.8071 149.071L35.7868 151.091Z"
       fill="#31AA49"
       id="path30" />
    <path
       d="M47.9086 120.787C46.9702 119.848 46.501 119.379 46.0462 119.049C43.5427 117.23 40.1527 117.23 37.6492 119.049C37.1945 119.379 36.7252 119.848 35.7868 120.787C34.8484 121.725 34.3791 122.194 34.0487 122.649C32.2298 125.153 32.2298 128.543 34.0487 131.046C34.3791 131.501 34.8484 131.97 35.7868 132.909L37.8071 134.929L49.9289 122.807L47.9086 120.787Z"
       fill="#31AA49"
       id="path31" />
    <path
       d="M53.3271 148V146.515L55.5696 144.482C56.2696 143.847 56.8221 143.315 57.2271 142.885C57.6371 142.45 57.9271 142.065 58.0971 141.73C58.2721 141.395 58.3596 141.057 58.3596 140.717C58.3596 140.217 58.1921 139.83 57.8571 139.555C57.5221 139.28 57.0496 139.142 56.4396 139.142C55.9796 139.142 55.5371 139.23 55.1121 139.405C54.6921 139.575 54.3221 139.827 54.0021 140.162L53.2296 138.557C53.6896 138.142 54.2171 137.825 54.8121 137.605C55.4121 137.385 56.0271 137.275 56.6571 137.275C57.4171 137.275 58.0796 137.407 58.6446 137.672C59.2096 137.937 59.6446 138.31 59.9496 138.79C60.2596 139.265 60.4146 139.82 60.4146 140.455C60.4146 140.89 60.3296 141.317 60.1596 141.737C59.9896 142.152 59.6871 142.62 59.2521 143.14C58.8221 143.66 58.2146 144.29 57.4296 145.03L56.2071 146.17H60.6921V148H53.3271Z"
       fill="white"
       id="path32" />
  </g>
  <g
     id="g80"
     inkscape:label="table_3_3">
    <path
       d="M44.8782 219.878C51.5729 213.183 62.4271 213.183 69.1218 219.878C75.8165 226.573 75.8165 237.427 69.1218 244.122C62.4271 250.816 51.5729 250.816 44.8782 244.122C38.1835 237.427 38.1835 226.573 44.8782 219.878Z"
       fill="#31AA49"
       id="path33" />
    <path
       d="M66.0914 210.787C67.0298 209.848 67.499 209.379 67.9538 209.049C70.4573 207.23 73.8473 207.23 76.3508 209.049C76.8055 209.379 77.2748 209.848 78.2132 210.787C79.1516 211.725 79.6209 212.194 79.9513 212.649C81.7702 215.153 81.7702 218.543 79.9513 221.046C79.6209 221.501 79.1516 221.97 78.2132 222.909L76.1929 224.929L64.0711 212.807L66.0914 210.787Z"
       fill="#31AA49"
       id="path34" />
    <path
       d="M78.2132 241.091C79.1516 242.03 79.6209 242.499 79.9513 242.954C81.7702 245.457 81.7702 248.847 79.9513 251.351C79.6209 251.805 79.1516 252.275 78.2132 253.213C77.2748 254.152 76.8055 254.621 76.3508 254.951C73.8473 256.77 70.4573 256.77 67.9538 254.951C67.499 254.621 67.0298 254.152 66.0914 253.213L64.0711 251.193L76.1929 239.071L78.2132 241.091Z"
       fill="#31AA49"
       id="path35" />
    <path
       d="M35.7868 241.091C34.8484 242.03 34.3791 242.499 34.0487 242.954C32.2298 245.457 32.2298 248.847 34.0487 251.351C34.3791 251.805 34.8484 252.275 35.7868 253.213C36.7252 254.152 37.1945 254.621 37.6492 254.951C40.1527 256.77 43.5427 256.77 46.0462 254.951C46.501 254.621 46.9702 254.152 47.9086 253.213L49.9289 251.193L37.8071 239.071L35.7868 241.091Z"
       fill="#31AA49"
       id="path36" />
    <path
       d="M47.9086 210.787C46.9702 209.848 46.501 209.379 46.0462 209.049C43.5427 207.23 40.1527 207.23 37.6492 209.049C37.1945 209.379 36.7252 209.848 35.7868 210.787C34.8484 211.725 34.3791 212.194 34.0487 212.649C32.2298 215.153 32.2298 218.543 34.0487 221.046C34.3791 221.501 34.8484 221.97 35.7868 222.909L37.8071 224.929L49.9289 212.807L47.9086 210.787Z"
       fill="#31AA49"
       id="path37" />
    <path
       d="M56.5728 238.225C56.1178 238.225 55.6703 238.175 55.2303 238.075C54.7953 237.98 54.3953 237.847 54.0303 237.677C53.6703 237.507 53.3828 237.315 53.1678 237.1L53.8578 235.33C54.1478 235.64 54.5278 235.888 54.9978 236.073C55.4728 236.252 55.9528 236.342 56.4378 236.342C56.8378 236.342 57.1878 236.277 57.4878 236.147C57.7878 236.012 58.0203 235.825 58.1853 235.585C58.3553 235.345 58.4403 235.065 58.4403 234.745C58.4403 234.24 58.2553 233.847 57.8853 233.567C57.5203 233.287 57.0378 233.147 56.4378 233.147C56.2478 233.147 56.0478 233.162 55.8378 233.192C55.6328 233.217 55.4228 233.257 55.2078 233.312L54.6003 231.91L57.5253 229.315H53.2803V227.5H60.0603V229.165L57.3303 231.82C57.8753 231.835 58.3903 231.96 58.8753 232.195C59.3603 232.43 59.7553 232.772 60.0603 233.222C60.3653 233.672 60.5178 234.23 60.5178 234.895C60.5178 235.545 60.3503 236.12 60.0153 236.62C59.6803 237.12 59.2153 237.512 58.6203 237.797C58.0303 238.083 57.3478 238.225 56.5728 238.225Z"
       fill="white"
       id="path38" />
  </g>
  <g
     id="g81"
     inkscape:label="table_4_4">
    <path
       d="M44.8782 309.878C51.5729 303.183 62.4271 303.183 69.1218 309.878C75.8165 316.573 75.8165 327.427 69.1218 334.122C62.4271 340.816 51.5729 340.816 44.8782 334.122C38.1835 327.427 38.1835 316.573 44.8782 309.878Z"
       fill="#31AA49"
       id="path39" />
    <path
       d="M66.0914 300.787C67.0298 299.848 67.499 299.379 67.9538 299.049C70.4573 297.23 73.8473 297.23 76.3508 299.049C76.8055 299.379 77.2748 299.848 78.2132 300.787C79.1516 301.725 79.6209 302.194 79.9513 302.649C81.7702 305.153 81.7702 308.543 79.9513 311.046C79.6209 311.501 79.1516 311.97 78.2132 312.909L76.1929 314.929L64.0711 302.807L66.0914 300.787Z"
       fill="#31AA49"
       id="path40" />
    <path
       d="M78.2132 331.091C79.1516 332.03 79.6209 332.499 79.9513 332.954C81.7702 335.457 81.7702 338.847 79.9513 341.351C79.6209 341.805 79.1516 342.275 78.2132 343.213C77.2748 344.152 76.8055 344.621 76.3508 344.951C73.8473 346.77 70.4573 346.77 67.9538 344.951C67.499 344.621 67.0298 344.152 66.0914 343.213L64.0711 341.193L76.1929 329.071L78.2132 331.091Z"
       fill="#31AA49"
       id="path41" />
    <path
       d="M35.7868 331.091C34.8484 332.03 34.3791 332.499 34.0487 332.954C32.2298 335.457 32.2298 338.847 34.0487 341.351C34.3791 341.805 34.8484 342.275 35.7868 343.213C36.7252 344.152 37.1945 344.621 37.6492 344.951C40.1527 346.77 43.5427 346.77 46.0462 344.951C46.501 344.621 46.9702 344.152 47.9086 343.213L49.9289 341.193L37.8071 329.071L35.7868 331.091Z"
       fill="#31AA49"
       id="path42" />
    <path
       d="M47.9086 300.787C46.9702 299.848 46.501 299.379 46.0462 299.049C43.5427 297.23 40.1527 297.23 37.6492 299.049C37.1945 299.379 36.7252 299.848 35.7868 300.787C34.8484 301.725 34.3791 302.194 34.0487 302.649C32.2298 305.153 32.2298 308.543 34.0487 311.046C34.3791 311.501 34.8484 311.97 35.7868 312.909L37.8071 314.929L49.9289 302.807L47.9086 300.787Z"
       fill="#31AA49"
       id="path43" />
    <path
       d="M57.7758 328V325.967H52.7058V324.362L56.1783 317.5H58.3758L54.9933 324.175H57.7758V322.03H59.6283V324.175H61.1208V325.967H59.6283V328H57.7758Z"
       fill="white"
       id="path44" />
  </g>
  <g
     id="g82"
     inkscape:label="table_5_4">
    <path
       d="M44.8782 387.878C51.5729 381.183 62.4271 381.183 69.1218 387.878C75.8165 394.573 75.8165 405.427 69.1218 412.122C62.4271 418.816 51.5729 418.816 44.8782 412.122C38.1835 405.427 38.1835 394.573 44.8782 387.878Z"
       fill="#31AA49"
       id="path45" />
    <path
       d="M66.0914 378.787C67.0298 377.848 67.499 377.379 67.9538 377.049C70.4573 375.23 73.8473 375.23 76.3508 377.049C76.8055 377.379 77.2748 377.848 78.2132 378.787C79.1516 379.725 79.6209 380.194 79.9513 380.649C81.7702 383.153 81.7702 386.543 79.9513 389.046C79.6209 389.501 79.1516 389.97 78.2132 390.909L76.1929 392.929L64.0711 380.807L66.0914 378.787Z"
       fill="#31AA49"
       id="path46" />
    <path
       d="M78.2132 409.091C79.1516 410.03 79.6209 410.499 79.9513 410.954C81.7702 413.457 81.7702 416.847 79.9513 419.351C79.6209 419.805 79.1516 420.275 78.2132 421.213C77.2748 422.152 76.8055 422.621 76.3508 422.951C73.8473 424.77 70.4573 424.77 67.9538 422.951C67.499 422.621 67.0298 422.152 66.0914 421.213L64.0711 419.193L76.1929 407.071L78.2132 409.091Z"
       fill="#31AA49"
       id="path47" />
    <path
       d="M35.7868 409.091C34.8484 410.03 34.3791 410.499 34.0487 410.954C32.2298 413.457 32.2298 416.847 34.0487 419.351C34.3791 419.805 34.8484 420.275 35.7868 421.213C36.7252 422.152 37.1945 422.621 37.6492 422.951C40.1527 424.77 43.5427 424.77 46.0462 422.951C46.501 422.621 46.9702 422.152 47.9086 421.213L49.9289 419.193L37.8071 407.071L35.7868 409.091Z"
       fill="#31AA49"
       id="path48" />
    <path
       d="M47.9086 378.787C46.9702 377.848 46.501 377.379 46.0462 377.049C43.5427 375.23 40.1527 375.23 37.6492 377.049C37.1945 377.379 36.7252 377.848 35.7868 378.787C34.8484 379.725 34.3791 380.194 34.0487 380.649C32.2298 383.153 32.2298 386.543 34.0487 389.046C34.3791 389.501 34.8484 389.97 35.7868 390.909L37.8071 392.929L49.9289 380.807L47.9086 378.787Z"
       fill="#31AA49"
       id="path49" />
    <path
       d="M56.5658 406.225C55.8908 406.225 55.2508 406.13 54.6458 405.94C54.0458 405.745 53.5458 405.482 53.1458 405.152L53.8058 403.405C54.1408 403.725 54.5408 403.962 55.0058 404.117C55.4758 404.267 55.9558 404.342 56.4458 404.342C56.8658 404.342 57.2283 404.28 57.5333 404.155C57.8433 404.025 58.0808 403.835 58.2458 403.585C58.4108 403.33 58.4933 403.017 58.4933 402.647C58.4933 402.322 58.4058 402.042 58.2308 401.807C58.0608 401.572 57.8208 401.392 57.5108 401.267C57.2058 401.137 56.8483 401.072 56.4383 401.072C56.1733 401.072 55.8958 401.105 55.6058 401.17C55.3158 401.235 55.0233 401.332 54.7283 401.462L53.8208 400.465L54.3683 395.507L60.3308 395.515V397.427H55.9058L55.6433 399.557C55.8483 399.502 56.0558 399.46 56.2658 399.43C56.4758 399.395 56.6858 399.377 56.8958 399.377C57.6108 399.377 58.2458 399.512 58.8008 399.782C59.3558 400.047 59.7908 400.432 60.1058 400.937C60.4208 401.437 60.5783 402.04 60.5783 402.745C60.5783 403.45 60.4108 404.062 60.0758 404.582C59.7408 405.102 59.2708 405.507 58.6658 405.797C58.0658 406.083 57.3658 406.225 56.5658 406.225Z"
       fill="white"
       id="path50" />
  </g>
  <g
     id="g84"
     inkscape:label="table_6_10">
    <path
       d="M161.968 400C161.968 390.532 169.709 382.857 179.258 382.857H252.742C262.291 382.857 270.032 390.532 270.032 400C270.032 409.468 262.291 417.143 252.742 417.143H179.258C169.709 417.143 161.968 409.468 161.968 400Z"
       fill="#31AA49"
       id="path51" />
    <path
       d="M170.613 378.571C170.613 377.244 170.613 376.581 170.702 376.025C171.19 372.969 173.608 370.572 176.69 370.088C177.25 370 177.919 370 179.258 370C180.597 370 181.266 370 181.826 370.088C184.909 370.572 187.326 372.969 187.815 376.025C187.903 376.581 187.903 377.244 187.903 378.571V381.429H170.613V378.571Z"
       fill="#31AA49"
       id="path52" />
    <path
       d="M195.108 378.571C195.108 377.244 195.108 376.581 195.196 376.025C195.684 372.969 198.102 370.572 201.185 370.088C201.745 370 202.414 370 203.753 370C205.091 370 205.761 370 206.321 370.088C209.403 370.572 211.821 372.969 212.309 376.025C212.398 376.581 212.398 377.244 212.398 378.571V381.429H195.108V378.571Z"
       fill="#31AA49"
       id="path53" />
    <path
       d="M219.602 378.571C219.602 377.244 219.602 376.581 219.691 376.025C220.179 372.969 222.597 370.572 225.679 370.088C226.239 370 226.909 370 228.247 370C229.586 370 230.255 370 230.815 370.088C233.898 370.572 236.316 372.969 236.804 376.025C236.892 376.581 236.892 377.244 236.892 378.571V381.429H219.602V378.571Z"
       fill="#31AA49"
       id="path54" />
    <path
       d="M244.097 378.571C244.097 377.244 244.097 376.581 244.185 376.025C244.674 372.969 247.091 370.572 250.174 370.088C250.734 370 251.403 370 252.742 370C254.081 370 254.75 370 255.31 370.088C258.392 370.572 260.81 372.969 261.298 376.025C261.387 376.581 261.387 377.244 261.387 378.571V381.429H244.097V378.571Z"
       fill="#31AA49"
       id="path55" />
    <path
       d="M274.355 391.429C275.693 391.429 276.363 391.429 276.923 391.517C280.005 392.001 282.423 394.398 282.911 397.454C283 398.009 283 398.673 283 400C283 401.327 283 401.991 282.911 402.546C282.423 405.602 280.005 407.999 276.923 408.483C276.363 408.571 275.693 408.571 274.355 408.571H271.473V391.429H274.355Z"
       fill="#31AA49"
       id="path56" />
    <path
       d="M170.613 421.429C170.613 422.756 170.613 423.419 170.702 423.975C171.19 427.031 173.608 429.428 176.69 429.912C177.25 430 177.919 430 179.258 430C180.597 430 181.266 430 181.826 429.912C184.909 429.428 187.326 427.031 187.815 423.975C187.903 423.419 187.903 422.756 187.903 421.429V418.571H170.613V421.429Z"
       fill="#31AA49"
       id="path57" />
    <path
       d="M195.108 421.429C195.108 422.756 195.108 423.419 195.196 423.975C195.684 427.031 198.102 429.428 201.185 429.912C201.745 430 202.414 430 203.753 430C205.091 430 205.761 430 206.321 429.912C209.403 429.428 211.821 427.031 212.309 423.975C212.398 423.419 212.398 422.756 212.398 421.429V418.571H195.108V421.429Z"
       fill="#31AA49"
       id="path58" />
    <path
       d="M219.602 421.429C219.602 422.756 219.602 423.419 219.691 423.975C220.179 427.031 222.597 429.428 225.679 429.912C226.239 430 226.909 430 228.247 430C229.586 430 230.255 430 230.815 429.912C233.898 429.428 236.316 427.031 236.804 423.975C236.892 423.419 236.892 422.756 236.892 421.429V418.571H219.602V421.429Z"
       fill="#31AA49"
       id="path59" />
    <path
       d="M244.097 421.429C244.097 422.756 244.097 423.419 244.185 423.975C244.674 427.031 247.091 429.428 250.174 429.912C250.734 430 251.403 430 252.742 430C254.081 430 254.75 430 255.31 429.912C258.392 429.428 260.81 427.031 261.298 423.975C261.387 423.419 261.387 422.756 261.387 421.429V418.571H244.097V421.429Z"
       fill="#31AA49"
       id="path60" />
    <path
       d="M157.645 391.429C156.307 391.429 155.637 391.429 155.077 391.517C151.995 392.001 149.577 394.398 149.089 397.454C149 398.009 149 398.673 149 400C149 401.327 149 401.991 149.089 402.546C149.577 405.602 151.995 407.999 155.077 408.483C155.637 408.571 156.307 408.571 157.645 408.571H160.527V391.429H157.645Z"
       fill="#31AA49"
       id="path61" />
    <path
       d="M216.101 406.225C215.301 406.225 214.589 406.053 213.964 405.707C213.339 405.362 212.846 404.87 212.486 404.23C212.126 403.585 211.946 402.815 211.946 401.92C211.946 401.035 212.116 400.22 212.456 399.475C212.796 398.725 213.269 398.062 213.874 397.487C214.484 396.912 215.194 396.437 216.004 396.062C216.819 395.682 217.696 395.42 218.636 395.275L219.386 396.925C218.711 397.005 218.106 397.14 217.571 397.33C217.041 397.515 216.576 397.747 216.176 398.027C215.776 398.302 215.439 398.61 215.164 398.95C214.894 399.285 214.681 399.64 214.526 400.015C214.776 399.765 215.076 399.567 215.426 399.422C215.776 399.277 216.149 399.205 216.544 399.205C217.229 399.205 217.839 399.35 218.374 399.64C218.914 399.93 219.339 400.33 219.649 400.84C219.964 401.345 220.121 401.925 220.121 402.58C220.121 403.09 220.024 403.567 219.829 404.012C219.634 404.452 219.356 404.84 218.996 405.175C218.641 405.505 218.219 405.762 217.729 405.947C217.239 406.133 216.696 406.225 216.101 406.225ZM216.101 404.425C216.476 404.425 216.809 404.35 217.099 404.2C217.389 404.045 217.616 403.837 217.781 403.577C217.951 403.312 218.036 403.01 218.036 402.67C218.036 402.335 217.951 402.035 217.781 401.77C217.611 401.505 217.381 401.297 217.091 401.147C216.801 400.992 216.471 400.915 216.101 400.915C215.736 400.915 215.409 400.992 215.119 401.147C214.829 401.297 214.599 401.505 214.429 401.77C214.259 402.035 214.174 402.335 214.174 402.67C214.174 403.01 214.256 403.312 214.421 403.577C214.586 403.837 214.814 404.045 215.104 404.2C215.399 404.35 215.731 404.425 216.101 404.425Z"
       fill="white"
       id="path62" />
  </g>
  <g
     id="g83"
     inkscape:label="table_10_2">
    <path
       d="M215 52C215 42.5323 222.611 34.8571 232 34.8571C241.389 34.8571 249 42.5323 249 52C249 61.4677 241.389 69.1429 232 69.1429C222.611 69.1429 215 61.4677 215 52Z"
       fill="#31AA49"
       id="path63" />
    <path
       d="M223.5 30.5714C223.5 29.2443 223.5 28.5807 223.587 28.0255C224.067 24.9691 226.444 22.572 229.475 22.0879C230.026 22 230.684 22 232 22C233.316 22 233.974 22 234.525 22.0879C237.556 22.572 239.933 24.9691 240.413 28.0255C240.5 28.5807 240.5 29.2443 240.5 30.5714V33.4286H223.5V30.5714Z"
       fill="#31AA49"
       id="path64" />
    <path
       d="M223.5 73.4286C223.5 74.7557 223.5 75.4193 223.587 75.9745C224.067 79.0309 226.444 81.428 229.475 81.9121C230.026 82 230.684 82 232 82C233.316 82 233.974 82 234.525 81.9121C237.556 81.428 239.933 79.0309 240.413 75.9745C240.5 75.4193 240.5 74.7557 240.5 73.4286V70.5714H223.5V73.4286Z"
       fill="#31AA49"
       id="path65" />
    <path
       d="M226.647 58V49.885L224.157 50.7775L223.572 49.0525L228.537 47.275H228.687V58H226.647ZM235.387 58.225C234.687 58.225 234.064 58.0825 233.519 57.7975C232.974 57.5125 232.512 57.1175 232.132 56.6125C231.757 56.1075 231.469 55.525 231.269 54.865C231.074 54.205 230.977 53.5 230.977 52.75C230.977 51.995 231.074 51.2875 231.269 50.6275C231.469 49.9675 231.757 49.3875 232.132 48.8875C232.512 48.3825 232.974 47.9875 233.519 47.7025C234.064 47.4175 234.687 47.275 235.387 47.275C236.082 47.275 236.702 47.4175 237.247 47.7025C237.792 47.9875 238.252 48.3825 238.627 48.8875C239.007 49.3875 239.297 49.9675 239.497 50.6275C239.697 51.2875 239.797 51.995 239.797 52.75C239.797 53.5 239.697 54.205 239.497 54.865C239.297 55.525 239.007 56.1075 238.627 56.6125C238.252 57.1175 237.792 57.5125 237.247 57.7975C236.702 58.0825 236.082 58.225 235.387 58.225ZM235.387 56.305C235.732 56.305 236.044 56.2275 236.324 56.0725C236.604 55.9125 236.844 55.6825 237.044 55.3825C237.249 55.0775 237.404 54.705 237.509 54.265C237.619 53.82 237.674 53.315 237.674 52.75C237.674 51.995 237.579 51.3525 237.389 50.8225C237.199 50.2875 236.932 49.8825 236.587 49.6075C236.247 49.3325 235.847 49.195 235.387 49.195C235.042 49.195 234.729 49.275 234.449 49.435C234.169 49.59 233.927 49.82 233.722 50.125C233.522 50.425 233.367 50.795 233.257 51.235C233.152 51.675 233.099 52.18 233.099 52.75C233.099 53.505 233.194 54.1475 233.384 54.6775C233.574 55.2075 233.839 55.6125 234.179 55.8925C234.524 56.1675 234.927 56.305 235.387 56.305Z"
       fill="white"
       id="path66" />
  </g>
  <g
     filter="url(#filter0_d_15_252)"
     id="g70"
     inkscape:label="table_8_2">
    <path
       d="M231.857 255C231.857 245.611 239.532 238 249 238C258.468 238 266.143 245.611 266.143 255C266.143 264.389 258.468 272 249 272C239.532 272 231.857 264.389 231.857 255Z"
       fill="#31AA49"
       id="path67" />
    <path
       d="M270.429 246.5C271.756 246.5 272.419 246.5 272.975 246.587C276.031 247.067 278.428 249.444 278.912 252.475C279 253.026 279 253.684 279 255C279 256.316 279 256.974 278.912 257.525C278.428 260.556 276.031 262.933 272.975 263.413C272.419 263.5 271.756 263.5 270.429 263.5H267.571V246.5H270.429Z"
       fill="#31AA49"
       id="path68" />
    <path
       d="M227.571 246.5C226.244 246.5 225.581 246.5 225.025 246.587C221.969 247.067 219.572 249.444 219.088 252.475C219 253.026 219 253.684 219 255C219 256.316 219 256.974 219.088 257.525C219.572 260.556 221.969 262.933 225.025 263.413C225.581 263.5 226.244 263.5 227.571 263.5H230.429V246.5H227.571Z"
       fill="#31AA49"
       id="path69" />
    <path
       d="M248.953 261.225C248.143 261.225 247.448 261.088 246.868 260.812C246.288 260.532 245.843 260.155 245.533 259.68C245.228 259.205 245.076 258.67 245.076 258.075C245.076 257.655 245.148 257.277 245.293 256.942C245.443 256.607 245.658 256.317 245.938 256.072C246.223 255.822 246.563 255.617 246.958 255.457C246.573 255.292 246.223 255.02 245.908 254.64C245.598 254.255 245.443 253.765 245.443 253.17C245.443 252.61 245.596 252.112 245.901 251.677C246.206 251.242 246.626 250.9 247.161 250.65C247.696 250.4 248.308 250.275 248.998 250.275C249.698 250.275 250.316 250.402 250.851 250.657C251.391 250.907 251.813 251.25 252.118 251.685C252.423 252.12 252.576 252.615 252.576 253.17C252.576 253.57 252.503 253.922 252.358 254.227C252.213 254.527 252.026 254.78 251.796 254.985C251.566 255.19 251.323 255.347 251.068 255.457C251.618 255.692 252.063 256.032 252.403 256.477C252.748 256.922 252.921 257.455 252.921 258.075C252.921 258.67 252.753 259.205 252.418 259.68C252.083 260.155 251.616 260.532 251.016 260.812C250.421 261.088 249.733 261.225 248.953 261.225ZM248.998 259.477C249.318 259.477 249.618 259.417 249.898 259.297C250.178 259.172 250.406 258.992 250.581 258.757C250.761 258.517 250.851 258.225 250.851 257.88C250.851 257.53 250.766 257.237 250.596 257.002C250.431 256.767 250.208 256.59 249.928 256.47C249.648 256.345 249.338 256.282 248.998 256.282C248.478 256.282 248.038 256.42 247.678 256.695C247.323 256.97 247.146 257.365 247.146 257.88C247.146 258.225 247.231 258.517 247.401 258.757C247.571 258.992 247.796 259.172 248.076 259.297C248.361 259.417 248.668 259.477 248.998 259.477ZM249.013 254.587C249.328 254.587 249.608 254.532 249.853 254.422C250.098 254.307 250.291 254.147 250.431 253.942C250.571 253.737 250.641 253.5 250.641 253.23C250.641 252.825 250.488 252.49 250.183 252.225C249.883 251.955 249.493 251.82 249.013 251.82C248.693 251.82 248.411 251.882 248.166 252.007C247.921 252.127 247.728 252.295 247.588 252.51C247.453 252.72 247.386 252.96 247.386 253.23C247.386 253.635 247.538 253.962 247.843 254.212C248.153 254.462 248.543 254.587 249.013 254.587Z"
       fill="white"
       id="path70" />
  </g>
  <g
     id="g85"
     inkscape:label="table_7_2">
    <path
       d="M231.857 315C231.857 305.611 239.532 298 249 298C258.468 298 266.143 305.611 266.143 315C266.143 324.389 258.468 332 249 332C239.532 332 231.857 324.389 231.857 315Z"
       fill="#31AA49"
       id="path71" />
    <path
       d="M270.429 306.5C271.756 306.5 272.419 306.5 272.975 306.587C276.031 307.067 278.428 309.444 278.912 312.475C279 313.026 279 313.684 279 315C279 316.316 279 316.974 278.912 317.525C278.428 320.556 276.031 322.933 272.975 323.413C272.419 323.5 271.756 323.5 270.429 323.5H267.571V306.5H270.429Z"
       fill="#31AA49"
       id="path72" />
    <path
       d="M227.571 306.5C226.244 306.5 225.581 306.5 225.025 306.587C221.969 307.067 219.572 309.444 219.088 312.475C219 313.026 219 313.684 219 315C219 316.316 219 316.974 219.088 317.525C219.572 320.556 221.969 322.933 225.025 323.413C225.581 323.5 226.244 323.5 227.571 323.5H230.429V306.5H227.571Z"
       fill="#31AA49"
       id="path73" />
    <path
       d="M245.952 321L250.137 312.48H245.412V310.5H252.604V312.082L248.292 321H245.952Z"
       fill="white"
       id="path74" />
  </g>
  <defs
     id="defs76">
    <filter
       id="filter0_d_15_252"
       x="215"
       y="238"
       width="68"
       height="42"
       filterUnits="userSpaceOnUse"
       color-interpolation-filters="sRGB">
      <feFlood
         flood-opacity="0"
         result="BackgroundImageFix"
         id="feFlood74" />
      <feColorMatrix
         in="SourceAlpha"
         type="matrix"
         values="0 0 0 0 0 0 0 0 0 0 0 0 0 0 0 0 0 0 127 0"
         result="hardAlpha"
         id="feColorMatrix74" />
      <feOffset
         dy="4"
         id="feOffset74" />
      <feGaussianBlur
         stdDeviation="2"
         id="feGaussianBlur74" />
      <feComposite
         in2="hardAlpha"
         operator="out"
         id="feComposite74" />
      <feColorMatrix
         type="matrix"
         values="0 0 0 0 0 0 0 0 0 0 0 0 0 0 0 0 0 0 0.25 0"
         id="feColorMatrix75" />
      <feBlend
         mode="normal"
         in2="BackgroundImageFix"
         result="effect1_dropShadow_15_252"
         id="feBlend75" />
      <feBlend
         mode="normal"
         in="SourceGraphic"
         in2="effect1_dropShadow_15_252"
         result="shape"
         id="feBlend76" />
    </filter>
  </defs>
</svg>
