<?xml version="1.0" encoding="UTF-8" standalone="no"?>
<svg
   width="338"
   height="441"
   viewBox="0 0 338 441"
   fill="none"
   version="1.1"
   id="svg74"
   sodipodi:docname="tables.svg"
   inkscape:version="1.4 (e7c3feb1, 2024-10-09)"
   xmlns:inkscape="http://www.inkscape.org/namespaces/inkscape"
   xmlns:sodipodi="http://sodipodi.sourceforge.net/DTD/sodipodi-0.dtd"
   xmlns="http://www.w3.org/2000/svg"
   xmlns:svg="http://www.w3.org/2000/svg">
  <sodipodi:namedview
     id="namedview74"
     pagecolor="#ffffff"
     bordercolor="#000000"
     borderopacity="0.25"
     inkscape:showpageshadow="2"
     inkscape:pageopacity="0.0"
     inkscape:pagecheckerboard="0"
     inkscape:deskcolor="#d1d1d1"
     inkscape:zoom="0.62199931"
     inkscape:cx="602.89456"
     inkscape:cy="139.06768"
     inkscape:window-width="1440"
     inkscape:window-height="762"
     inkscape:window-x="0"
     inkscape:window-y="25"
     inkscape:window-maximized="0"
     inkscape:current-layer="svg74" />
  <g
     id="table_9"
     type="table">
    <path
       d="M161 52C161 42.5323 168.611 34.8571 178 34.8571C187.389 34.8571 195 42.5323 195 52C195 61.4677 187.389 69.1429 178 69.1429C168.611 69.1429 161 61.4677 161 52Z"
       fill="#31AA49"
       fill-opacity="0.8"
       id="path1"
       inkscape:label="item" />
    <path
       d="M169.5 30.5714C169.5 29.2443 169.5 28.5807 169.587 28.0255C170.067 24.9691 172.444 22.572 175.475 22.0879C176.026 22 176.684 22 178 22C179.316 22 179.974 22 180.525 22.0879C183.556 22.572 185.933 24.9691 186.413 28.0255C186.5 28.5807 186.5 29.2443 186.5 30.5714V33.4286H169.5V30.5714Z"
       fill="#31AA49"
       fill-opacity="0.8"
       id="path2"
       inkscape:label="item" />
    <path
       d="M169.5 73.4286C169.5 74.7557 169.5 75.4193 169.587 75.9745C170.067 79.0309 172.444 81.428 175.475 81.9121C176.026 82 176.684 82 178 82C179.316 82 179.974 82 180.525 81.9121C183.556 81.428 185.933 79.0309 186.413 75.9745C186.5 75.4193 186.5 74.7557 186.5 73.4286V70.5714H169.5V73.4286Z"
       fill="#31AA49"
       fill-opacity="0.8"
       id="path3"
       inkscape:label="item" />
  </g>
  <g
     id="table_1"
     type="table">
    <path
       d="M39.9079 52C39.9079 42.5323 47.6133 34.8571 57.1184 34.8571H105.882C115.387 34.8571 123.092 42.5323 123.092 52C123.092 61.4677 115.387 69.1429 105.882 69.1429H57.1184C47.6133 69.1429 39.9079 61.4677 39.9079 52Z"
       fill="#A0A0A0"
       fill-opacity="0.5"
       id="path5"
       inkscape:label="item" />
    <path
       d="M48.5132 30.5714C48.5132 29.2443 48.5132 28.5807 48.6014 28.0255C49.0874 24.9691 51.494 22.572 54.5624 22.0879C55.1198 22 55.786 22 57.1184 22C58.4508 22 59.117 22 59.6744 22.0879C62.7429 22.572 65.1494 24.9691 65.6354 28.0255C65.7237 28.5807 65.7237 29.2443 65.7237 30.5714V33.4286H48.5132V30.5714Z"
       fill="#A0A0A0"
       fill-opacity="0.5"
       id="path6"
       inkscape:label="item" />
    <path
       d="M72.8947 30.5714C72.8947 29.2443 72.8947 28.5807 72.983 28.0255C73.469 24.9691 75.8755 22.572 78.944 22.0879C79.5014 22 80.1676 22 81.5 22C82.8324 22 83.4986 22 84.056 22.0879C87.1245 22.572 89.531 24.9691 90.017 28.0255C90.105 28.5807 90.105 29.2443 90.105 30.5714V33.4286H72.8947V30.5714Z"
       fill="#A0A0A0"
       fill-opacity="0.5"
       id="path7"
       inkscape:label="item" />
    <path
       d="M97.276 30.5714C97.276 29.2443 97.276 28.5807 97.365 28.0255C97.851 24.9691 100.257 22.572 103.326 22.0879C103.883 22 104.549 22 105.882 22C107.214 22 107.88 22 108.438 22.0879C111.506 22.572 113.913 24.9691 114.399 28.0255C114.487 28.5807 114.487 29.2443 114.487 30.5714V33.4286H97.276V30.5714Z"
       fill="#A0A0A0"
       fill-opacity="0.5"
       id="path8"
       inkscape:label="item" />
    <path
       d="M127.395 43.4286C128.727 43.4286 129.393 43.4286 129.951 43.5165C133.019 44.0006 135.426 46.3977 135.912 49.454C136 50.0093 136 50.6728 136 52C136 53.3272 136 53.9907 135.912 54.546C135.426 57.6023 133.019 59.9994 129.951 60.4835C129.393 60.5714 128.727 60.5714 127.395 60.5714H124.526V43.4286H127.395Z"
       fill="#A0A0A0"
       fill-opacity="0.5"
       id="path9"
       inkscape:label="item" />
    <path
       d="M48.5132 73.4286C48.5132 74.7557 48.5132 75.4193 48.6014 75.9745C49.0874 79.0309 51.494 81.428 54.5624 81.9121C55.1198 82 55.786 82 57.1184 82C58.4508 82 59.117 82 59.6744 81.9121C62.7429 81.428 65.1494 79.0309 65.6354 75.9745C65.7237 75.4193 65.7237 74.7557 65.7237 73.4286V70.5714H48.5132V73.4286Z"
       fill="#A0A0A0"
       fill-opacity="0.5"
       id="path10"
       inkscape:label="item" />
    <path
       d="M72.8947 73.4286C72.8947 74.7557 72.8947 75.4193 72.983 75.9745C73.469 79.0309 75.8755 81.428 78.944 81.9121C79.5014 82 80.1676 82 81.5 82C82.8324 82 83.4986 82 84.056 81.9121C87.1245 81.428 89.531 79.0309 90.017 75.9745C90.105 75.4193 90.105 74.7557 90.105 73.4286V70.5714H72.8947V73.4286Z"
       fill="#A0A0A0"
       fill-opacity="0.5"
       id="path11"
       inkscape:label="item" />
    <path
       d="M97.276 73.4286C97.276 74.7557 97.276 75.4193 97.365 75.9745C97.851 79.0309 100.257 81.428 103.326 81.9121C103.883 82 104.549 82 105.882 82C107.214 82 107.88 82 108.438 81.9121C111.506 81.428 113.913 79.0309 114.399 75.9745C114.487 75.4193 114.487 74.7557 114.487 73.4286V70.5714H97.276V73.4286Z"
       fill="#A0A0A0"
       fill-opacity="0.5"
       id="path12"
       inkscape:label="item" />
    <path
       d="M35.6053 43.4286C34.2729 43.4286 33.6067 43.4286 33.0493 43.5165C29.9808 44.0006 27.5743 46.3977 27.0883 49.454C27 50.0093 27 50.6728 27 52C27 53.3272 27 53.9907 27.0883 54.546C27.5743 57.6023 29.9808 59.9994 33.0493 60.4835C33.6067 60.5714 34.2729 60.5714 35.6053 60.5714H38.4737V43.4286H35.6053Z"
       fill="#A0A0A0"
       fill-opacity="0.5"
       id="path13"
       inkscape:label="item" />
  </g>
  <g
     id="table_2"
     type="table">
    <path
       d="M44.8782 129.878C51.5729 123.183 62.4271 123.183 69.1218 129.878C75.8165 136.573 75.8165 147.427 69.1218 154.122C62.4271 160.816 51.5729 160.816 44.8782 154.122C38.1835 147.427 38.1835 136.573 44.8782 129.878Z"
       fill="#31AA49"
       fill-opacity="0.8"
       id="path15"
       inkscape:label="item" />
    <path
       d="M66.0914 120.787C67.0298 119.848 67.499 119.379 67.9538 119.049C70.4573 117.23 73.8473 117.23 76.3508 119.049C76.8055 119.379 77.2748 119.848 78.2132 120.787C79.1516 121.725 79.6209 122.194 79.9513 122.649C81.7702 125.153 81.7702 128.543 79.9513 131.046C79.6209 131.501 79.1516 131.97 78.2132 132.909L76.1929 134.929L64.0711 122.807L66.0914 120.787Z"
       fill="#31AA49"
       fill-opacity="0.8"
       id="path16"
       inkscape:label="item" />
    <path
       d="M78.2132 151.091C79.1516 152.03 79.6209 152.499 79.9513 152.954C81.7702 155.457 81.7702 158.847 79.9513 161.351C79.6209 161.805 79.1516 162.275 78.2132 163.213C77.2748 164.152 76.8055 164.621 76.3508 164.951C73.8473 166.77 70.4573 166.77 67.9538 164.951C67.499 164.621 67.0298 164.152 66.0914 163.213L64.0711 161.193L76.1929 149.071L78.2132 151.091Z"
       fill="#31AA49"
       fill-opacity="0.8"
       id="path17"
       inkscape:label="item" />
    <path
       d="M35.7868 151.091C34.8484 152.03 34.3791 152.499 34.0487 152.954C32.2298 155.457 32.2298 158.847 34.0487 161.351C34.3791 161.805 34.8484 162.275 35.7868 163.213C36.7252 164.152 37.1945 164.621 37.6492 164.951C40.1527 166.77 43.5427 166.77 46.0462 164.951C46.501 164.621 46.9702 164.152 47.9086 163.213L49.9289 161.193L37.8071 149.071L35.7868 151.091Z"
       fill="#31AA49"
       fill-opacity="0.8"
       id="path18"
       inkscape:label="item" />
    <path
       d="M47.9086 120.787C46.9702 119.848 46.501 119.379 46.0462 119.049C43.5427 117.23 40.1527 117.23 37.6492 119.049C37.1945 119.379 36.7252 119.848 35.7868 120.787C34.8484 121.725 34.3791 122.194 34.0487 122.649C32.2298 125.153 32.2298 128.543 34.0487 131.046C34.3791 131.501 34.8484 131.97 35.7868 132.909L37.8071 134.929L49.9289 122.807L47.9086 120.787Z"
       fill="#31AA49"
       fill-opacity="0.8"
       id="path19"
       inkscape:label="item" />
  </g>
  <g
     id="table_3"
     type="table">
    <path
       d="M44.8782 219.878C51.5729 213.183 62.4271 213.183 69.1218 219.878C75.8165 226.573 75.8165 237.427 69.1218 244.122C62.4271 250.816 51.5729 250.816 44.8782 244.122C38.1835 237.427 38.1835 226.573 44.8782 219.878Z"
       fill="#A0A0A0"
       fill-opacity="0.5"
       id="path21"
       inkscape:label="item" />
    <path
       d="M66.0914 210.787C67.0298 209.848 67.499 209.379 67.9538 209.049C70.4573 207.23 73.8473 207.23 76.3508 209.049C76.8055 209.379 77.2748 209.848 78.2132 210.787C79.1516 211.725 79.6209 212.194 79.9513 212.649C81.7702 215.153 81.7702 218.543 79.9513 221.046C79.6209 221.501 79.1516 221.97 78.2132 222.909L76.1929 224.929L64.0711 212.807L66.0914 210.787Z"
       fill="#A0A0A0"
       fill-opacity="0.5"
       id="path22"
       inkscape:label="item" />
    <path
       d="M78.2132 241.091C79.1516 242.03 79.6209 242.499 79.9513 242.954C81.7702 245.457 81.7702 248.847 79.9513 251.351C79.6209 251.805 79.1516 252.275 78.2132 253.213C77.2748 254.152 76.8055 254.621 76.3508 254.951C73.8473 256.77 70.4573 256.77 67.9538 254.951C67.499 254.621 67.0298 254.152 66.0914 253.213L64.0711 251.193L76.1929 239.071L78.2132 241.091Z"
       fill="#A0A0A0"
       fill-opacity="0.5"
       id="path23"
       inkscape:label="item" />
    <path
       d="M35.7868 241.091C34.8484 242.03 34.3791 242.499 34.0487 242.954C32.2298 245.457 32.2298 248.847 34.0487 251.351C34.3791 251.805 34.8484 252.275 35.7868 253.213C36.7252 254.152 37.1945 254.621 37.6492 254.951C40.1527 256.77 43.5427 256.77 46.0462 254.951C46.501 254.621 46.9702 254.152 47.9086 253.213L49.9289 251.193L37.8071 239.071L35.7868 241.091Z"
       fill="#A0A0A0"
       fill-opacity="0.5"
       id="path24"
       inkscape:label="item" />
    <path
       d="M47.9086 210.787C46.9702 209.848 46.501 209.379 46.0462 209.049C43.5427 207.23 40.1527 207.23 37.6492 209.049C37.1945 209.379 36.7252 209.848 35.7868 210.787C34.8484 211.725 34.3791 212.194 34.0487 212.649C32.2298 215.153 32.2298 218.543 34.0487 221.046C34.3791 221.501 34.8484 221.97 35.7868 222.909L37.8071 224.929L49.9289 212.807L47.9086 210.787Z"
       fill="#A0A0A0"
       fill-opacity="0.5"
       id="path25"
       inkscape:label="item" />
  </g>
  <g
     id="table_4"
     type="table">
    <path
       d="M44.8782 309.878C51.5729 303.183 62.4271 303.183 69.1218 309.878C75.8165 316.573 75.8165 327.427 69.1218 334.122C62.4271 340.816 51.5729 340.816 44.8782 334.122C38.1835 327.427 38.1835 316.573 44.8782 309.878Z"
       fill="#31AA49"
       fill-opacity="0.8"
       id="path27"
       inkscape:label="item" />
    <path
       d="M66.0914 300.787C67.0298 299.848 67.499 299.379 67.9538 299.049C70.4573 297.23 73.8473 297.23 76.3508 299.049C76.8055 299.379 77.2748 299.848 78.2132 300.787C79.1516 301.725 79.6209 302.194 79.9513 302.649C81.7702 305.153 81.7702 308.543 79.9513 311.046C79.6209 311.501 79.1516 311.97 78.2132 312.909L76.1929 314.929L64.0711 302.807L66.0914 300.787Z"
       fill="#31AA49"
       fill-opacity="0.8"
       id="path28"
       inkscape:label="item" />
    <path
       d="M78.2132 331.091C79.1516 332.03 79.6209 332.499 79.9513 332.954C81.7702 335.457 81.7702 338.847 79.9513 341.351C79.6209 341.805 79.1516 342.275 78.2132 343.213C77.2748 344.152 76.8055 344.621 76.3508 344.951C73.8473 346.77 70.4573 346.77 67.9538 344.951C67.499 344.621 67.0298 344.152 66.0914 343.213L64.0711 341.193L76.1929 329.071L78.2132 331.091Z"
       fill="#31AA49"
       fill-opacity="0.8"
       id="path29"
       inkscape:label="item" />
    <path
       d="M35.7868 331.091C34.8484 332.03 34.3791 332.499 34.0487 332.954C32.2298 335.457 32.2298 338.847 34.0487 341.351C34.3791 341.805 34.8484 342.275 35.7868 343.213C36.7252 344.152 37.1945 344.621 37.6492 344.951C40.1527 346.77 43.5427 346.77 46.0462 344.951C46.501 344.621 46.9702 344.152 47.9086 343.213L49.9289 341.193L37.8071 329.071L35.7868 331.091Z"
       fill="#31AA49"
       fill-opacity="0.8"
       id="path30"
       inkscape:label="item" />
    <path
       d="M47.9086 300.787C46.9702 299.848 46.501 299.379 46.0462 299.049C43.5427 297.23 40.1527 297.23 37.6492 299.049C37.1945 299.379 36.7252 299.848 35.7868 300.787C34.8484 301.725 34.3791 302.194 34.0487 302.649C32.2298 305.153 32.2298 308.543 34.0487 311.046C34.3791 311.501 34.8484 311.97 35.7868 312.909L37.8071 314.929L49.9289 302.807L47.9086 300.787Z"
       fill="#31AA49"
       fill-opacity="0.8"
       id="path31"
       inkscape:label="item" />
  </g>
  <g
     id="table_5"
     type="table">
    <path
       d="M44.8782 387.878C51.5729 381.183 62.4271 381.183 69.1218 387.878C75.8165 394.573 75.8165 405.427 69.1218 412.122C62.4271 418.816 51.5729 418.816 44.8782 412.122C38.1835 405.427 38.1835 394.573 44.8782 387.878Z"
       fill="#31AA49"
       fill-opacity="0.8"
       id="path33"
       inkscape:label="item" />
    <path
       d="M66.0914 378.787C67.0298 377.848 67.499 377.379 67.9538 377.049C70.4573 375.23 73.8473 375.23 76.3508 377.049C76.8055 377.379 77.2748 377.848 78.2132 378.787C79.1516 379.725 79.6209 380.194 79.9513 380.649C81.7702 383.153 81.7702 386.543 79.9513 389.046C79.6209 389.501 79.1516 389.97 78.2132 390.909L76.1929 392.929L64.0711 380.807L66.0914 378.787Z"
       fill="#31AA49"
       fill-opacity="0.8"
       id="path34"
       inkscape:label="item" />
    <path
       d="M78.2132 409.091C79.1516 410.03 79.6209 410.499 79.9513 410.954C81.7702 413.457 81.7702 416.847 79.9513 419.351C79.6209 419.805 79.1516 420.275 78.2132 421.213C77.2748 422.152 76.8055 422.621 76.3508 422.951C73.8473 424.77 70.4573 424.77 67.9538 422.951C67.499 422.621 67.0298 422.152 66.0914 421.213L64.0711 419.193L76.1929 407.071L78.2132 409.091Z"
       fill="#31AA49"
       fill-opacity="0.8"
       id="path35"
       inkscape:label="item" />
    <path
       d="M35.7868 409.091C34.8484 410.03 34.3791 410.499 34.0487 410.954C32.2298 413.457 32.2298 416.847 34.0487 419.351C34.3791 419.805 34.8484 420.275 35.7868 421.213C36.7252 422.152 37.1945 422.621 37.6492 422.951C40.1527 424.77 43.5427 424.77 46.0462 422.951C46.501 422.621 46.9702 422.152 47.9086 421.213L49.9289 419.193L37.8071 407.071L35.7868 409.091Z"
       fill="#31AA49"
       fill-opacity="0.8"
       id="path36"
       inkscape:label="item" />
    <path
       d="M47.9086 378.787C46.9702 377.848 46.501 377.379 46.0462 377.049C43.5427 375.23 40.1527 375.23 37.6492 377.049C37.1945 377.379 36.7252 377.848 35.7868 378.787C34.8484 379.725 34.3791 380.194 34.0487 380.649C32.2298 383.153 32.2298 386.543 34.0487 389.046C34.3791 389.501 34.8484 389.97 35.7868 390.909L37.8071 392.929L49.9289 380.807L47.9086 378.787Z"
       fill="#31AA49"
       fill-opacity="0.8"
       id="path37"
       inkscape:label="item" />
  </g>
  <g
     id="table_6"
     type="table">
    <path
       d="M161.968 401C161.968 391.532 169.709 383.857 179.258 383.857H252.742C262.291 383.857 270.032 391.532 270.032 401C270.032 410.468 262.291 418.143 252.742 418.143H179.258C169.709 418.143 161.968 410.468 161.968 401Z"
       fill="#31AA49"
       fill-opacity="0.8"
       id="path39"
       inkscape:label="item" />
    <path
       d="M170.613 379.571C170.613 378.244 170.613 377.581 170.702 377.025C171.19 373.969 173.608 371.572 176.69 371.088C177.25 371 177.919 371 179.258 371C180.597 371 181.266 371 181.826 371.088C184.909 371.572 187.326 373.969 187.815 377.025C187.903 377.581 187.903 378.244 187.903 379.571V382.429H170.613V379.571Z"
       fill="#31AA49"
       fill-opacity="0.8"
       id="path40"
       inkscape:label="item" />
    <path
       d="M195.108 379.571C195.108 378.244 195.108 377.581 195.196 377.025C195.684 373.969 198.102 371.572 201.185 371.088C201.745 371 202.414 371 203.753 371C205.091 371 205.761 371 206.321 371.088C209.403 371.572 211.821 373.969 212.309 377.025C212.398 377.581 212.398 378.244 212.398 379.571V382.429H195.108V379.571Z"
       fill="#31AA49"
       fill-opacity="0.8"
       id="path41"
       inkscape:label="item" />
    <path
       d="M219.602 379.571C219.602 378.244 219.602 377.581 219.691 377.025C220.179 373.969 222.597 371.572 225.679 371.088C226.239 371 226.909 371 228.247 371C229.586 371 230.255 371 230.815 371.088C233.898 371.572 236.316 373.969 236.804 377.025C236.892 377.581 236.892 378.244 236.892 379.571V382.429H219.602V379.571Z"
       fill="#31AA49"
       fill-opacity="0.8"
       id="path42"
       inkscape:label="item" />
    <path
       d="M244.097 379.571C244.097 378.244 244.097 377.581 244.185 377.025C244.674 373.969 247.091 371.572 250.174 371.088C250.734 371 251.403 371 252.742 371C254.081 371 254.75 371 255.31 371.088C258.392 371.572 260.81 373.969 261.298 377.025C261.387 377.581 261.387 378.244 261.387 379.571V382.429H244.097V379.571Z"
       fill="#31AA49"
       fill-opacity="0.8"
       id="path43"
       inkscape:label="item" />
    <path
       d="M274.355 392.429C275.693 392.429 276.363 392.429 276.923 392.517C280.005 393.001 282.423 395.398 282.911 398.454C283 399.009 283 399.673 283 401C283 402.327 283 402.991 282.911 403.546C282.423 406.602 280.005 408.999 276.923 409.483C276.363 409.571 275.693 409.571 274.355 409.571H271.473V392.429H274.355Z"
       fill="#31AA49"
       fill-opacity="0.8"
       id="path44"
       inkscape:label="item" />
    <path
       d="M170.613 422.429C170.613 423.756 170.613 424.419 170.702 424.975C171.19 428.031 173.608 430.428 176.69 430.912C177.25 431 177.919 431 179.258 431C180.597 431 181.266 431 181.826 430.912C184.909 430.428 187.326 428.031 187.815 424.975C187.903 424.419 187.903 423.756 187.903 422.429V419.571H170.613V422.429Z"
       fill="#31AA49"
       fill-opacity="0.8"
       id="path45"
       inkscape:label="item" />
    <path
       d="M195.108 422.429C195.108 423.756 195.108 424.419 195.196 424.975C195.684 428.031 198.102 430.428 201.185 430.912C201.745 431 202.414 431 203.753 431C205.091 431 205.761 431 206.321 430.912C209.403 430.428 211.821 428.031 212.309 424.975C212.398 424.419 212.398 423.756 212.398 422.429V419.571H195.108V422.429Z"
       fill="#31AA49"
       fill-opacity="0.8"
       id="path46"
       inkscape:label="item" />
    <path
       d="M219.602 422.429C219.602 423.756 219.602 424.419 219.691 424.975C220.179 428.031 222.597 430.428 225.679 430.912C226.239 431 226.909 431 228.247 431C229.586 431 230.255 431 230.815 430.912C233.898 430.428 236.316 428.031 236.804 424.975C236.892 424.419 236.892 423.756 236.892 422.429V419.571H219.602V422.429Z"
       fill="#31AA49"
       fill-opacity="0.8"
       id="path47"
       inkscape:label="item" />
    <path
       d="M244.097 422.429C244.097 423.756 244.097 424.419 244.185 424.975C244.674 428.031 247.091 430.428 250.174 430.912C250.734 431 251.403 431 252.742 431C254.081 431 254.75 431 255.31 430.912C258.392 430.428 260.81 428.031 261.298 424.975C261.387 424.419 261.387 423.756 261.387 422.429V419.571H244.097V422.429Z"
       fill="#31AA49"
       fill-opacity="0.8"
       id="path48"
       inkscape:label="item" />
    <path
       d="M157.645 392.429C156.307 392.429 155.637 392.429 155.077 392.517C151.995 393.001 149.577 395.398 149.089 398.454C149 399.009 149 399.673 149 401C149 402.327 149 402.991 149.089 403.546C149.577 406.602 151.995 408.999 155.077 409.483C155.637 409.571 156.307 409.571 157.645 409.571H160.527V392.429H157.645Z"
       fill="#31AA49"
       fill-opacity="0.8"
       id="path49"
       inkscape:label="item" />
  </g>
  <g
     id="table_10"
     type="table">
    <path
       d="M215 52C215 42.5323 222.611 34.8571 232 34.8571C241.389 34.8571 249 42.5323 249 52C249 61.4677 241.389 69.1429 232 69.1429C222.611 69.1429 215 61.4677 215 52Z"
       fill="#31AA49"
       fill-opacity="0.8"
       id="path51"
       inkscape:label="item" />
    <path
       d="M223.5 30.5714C223.5 29.2443 223.5 28.5807 223.587 28.0255C224.067 24.9691 226.444 22.572 229.475 22.0879C230.026 22 230.684 22 232 22C233.316 22 233.974 22 234.525 22.0879C237.556 22.572 239.933 24.9691 240.413 28.0255C240.5 28.5807 240.5 29.2443 240.5 30.5714V33.4286H223.5V30.5714Z"
       fill="#31AA49"
       id="path52"
       inkscape:label="item"
       fill-opacity="0.8" />
    <path
       fill="#31AA49"
       id="path53"
       inkscape:label="item"
       d="M223.5 73.4286C223.5 74.7557 223.5 75.4193 223.587 75.9745C224.067 79.0309 226.444 81.428 229.475 81.9121C230.026 82 230.684 82 232 82C233.316 82 233.974 82 234.525 81.9121C237.556 81.428 239.933 79.0309 240.413 75.9745C240.5 75.4193 240.5 74.7557 240.5 73.4286V70.5714H223.5V73.4286Z"
       fill-opacity="0.8" />
  </g>
  <g
     id="table_8"
     type="table">
    <path
       d="M231.857 255C231.857 245.611 239.532 238 249 238C258.468 238 266.143 245.611 266.143 255C266.143 264.389 258.468 272 249 272C239.532 272 231.857 264.389 231.857 255Z"
       fill="#A0A0A0"
       fill-opacity="0.5"
       id="path55"
       inkscape:label="item" />
    <path
       d="M270.429 246.5C271.756 246.5 272.419 246.5 272.975 246.587C276.031 247.067 278.428 249.444 278.912 252.475C279 253.026 279 253.684 279 255C279 256.316 279 256.974 278.912 257.525C278.428 260.556 276.031 262.933 272.975 263.413C272.419 263.5 271.756 263.5 270.429 263.5H267.571V246.5H270.429Z"
       fill="#A0A0A0"
       fill-opacity="0.5"
       id="path56"
       inkscape:label="item" />
    <path
       d="M227.571 246.5C226.244 246.5 225.581 246.5 225.025 246.587C221.969 247.067 219.572 249.444 219.088 252.475C219 253.026 219 253.684 219 255C219 256.316 219 256.974 219.088 257.525C219.572 260.556 221.969 262.933 225.025 263.413C225.581 263.5 226.244 263.5 227.571 263.5H230.429V246.5H227.571Z"
       fill="#A0A0A0"
       fill-opacity="0.5"
       id="path57"
       inkscape:label="item" />
  </g>
  <g
     id="table_7"
     type="table">
    <path
       d="M231.857 315C231.857 305.611 239.532 298 249 298C258.468 298 266.143 305.611 266.143 315C266.143 324.389 258.468 332 249 332C239.532 332 231.857 324.389 231.857 315Z"
       fill="#A0A0A0"
       fill-opacity="0.5"
       id="path59"
       inkscape:label="item" />
    <path
       d="M270.429 306.5C271.756 306.5 272.419 306.5 272.975 306.587C276.031 307.067 278.428 309.444 278.912 312.475C279 313.026 279 313.684 279 315C279 316.316 279 316.974 278.912 317.525C278.428 320.556 276.031 322.933 272.975 323.413C272.419 323.5 271.756 323.5 270.429 323.5H267.571V306.5H270.429Z"
       fill="#A0A0A0"
       fill-opacity="0.5"
       id="path60"
       inkscape:label="item" />
    <path
       d="M227.571 306.5C226.244 306.5 225.581 306.5 225.025 306.587C221.969 307.067 219.572 309.444 219.088 312.475C219 313.026 219 313.684 219 315C219 316.316 219 316.974 219.088 317.525C219.572 320.556 221.969 322.933 225.025 323.413C225.581 323.5 226.244 323.5 227.571 323.5H230.429V306.5H227.571Z"
       fill="#A0A0A0"
       fill-opacity="0.5"
       id="path61"
       inkscape:label="item" />
  </g>
  <g
     clip-path="url(#clip0_1_348)"
     id="g74"
     sodipodi:insensitive="true"
     inkscape:label="wall">
    <path
       d="M 285.437,38.3061 276.755,25.5423 V 2 H 3.0004 L 3,441 H 306.377 V 384.207 233.168 H 336 V 63.8339 H 321.189 L 310.974,53.0555 m -34.219,-7.3747 v 18.1531 h 14.811 l 9.704,-10.7784"
       stroke="#dddddd"
       stroke-width="1.5"
       id="path63" />
    <path
       d="M 6,122 H 0 v 39 h 6 z"
       fill="#d9d9d9"
       id="path64" />
    <path
       d="m 139,0 v 5 h 39 V 0 Z"
       fill="#d9d9d9"
       id="path65" />
    <path
       d="m 213,0 v 5 h 39 V 0 Z"
       fill="#d9d9d9"
       id="path66" />
    <path
       d="m 3,365 v 3 h 96 v -3 z"
       fill="#d9d9d9"
       id="path67" />
    <path
       d="m 3,276 v 3 h 96 v -3 z"
       fill="#d9d9d9"
       id="path68" />
    <path
       d="m 3,187 v 3 h 96 v -3 z"
       fill="#d9d9d9"
       id="path69" />
    <path
       d="m 3,98 v 3 h 96 v -3 z"
       fill="#d9d9d9"
       id="path70" />
    <path
       d="M 6,216 H 0 v 39 h 6 z"
       fill="#d9d9d9"
       id="path71" />
    <path
       d="M 6,310 H 0 v 39 h 6 z"
       fill="#d9d9d9"
       id="path72" />
    <path
       d="m 309,389 h -5 v 39 h 5 z"
       fill="#d9d9d9"
       id="path73" />
    <path
       d="m 338,205 h -5 v 39 h 5 z"
       fill="#d9d9d9"
       id="path74" />
  </g>
  <defs
     id="defs74">
    <clipPath
       id="clip0_1_348">
      <rect
         width="338"
         height="441"
         fill="white"
         id="rect74" />
    </clipPath>
  </defs>
</svg>
